<?xml version="1.0" standalone="no"?>
<!DOCTYPE svg PUBLIC "-//W3C//DTD SVG 20010904//EN"
 "http://www.w3.org/TR/2001/REC-SVG-20010904/DTD/svg10.dtd">
<svg version="1.0" xmlns="http://www.w3.org/2000/svg"
 width="500.000000pt" height="500.000000pt" viewBox="0 0 500.000000 500.000000"
 preserveAspectRatio="xMidYMid meet">
<metadata>
Created by potrace 1.14, written by Peter Selinger 2001-2017
</metadata>
<g transform="translate(0.000000,500.000000) scale(0.100000,-0.100000)"
fill="#000000" stroke="none">
<path d="M1799 4968 c-19 -12 -49 -29 -66 -39 -43 -25 -66 -38 -268 -154 -93
-54 -190 -110 -215 -124 -25 -14 -46 -29 -48 -33 -2 -4 -8 -8 -13 -8 -5 0 -74
-37 -152 -83 -79 -46 -150 -87 -157 -91 -8 -4 -24 -12 -35 -19 -11 -7 -54 -32
-95 -55 -63 -36 -81 -52 -104 -95 -16 -29 -48 -83 -71 -122 -23 -38 -45 -77
-48 -85 -4 -8 -15 -28 -26 -45 -10 -16 -27 -46 -38 -65 -11 -19 -119 -206
-240 -415 l-219 -380 1 -670 0 -670 162 -280 c88 -154 170 -296 182 -315 11
-19 32 -55 46 -80 14 -25 39 -67 55 -95 16 -27 40 -69 52 -93 12 -23 26 -42
30 -42 4 0 8 -7 8 -15 0 -8 10 -29 23 -47 12 -19 42 -70 67 -114 43 -77 48
-82 130 -129 166 -95 846 -488 946 -546 l100 -59 700 0 699 0 102 59 c55 32
107 61 114 65 8 3 35 19 60 34 72 43 456 265 486 282 24 13 202 116 298 172
17 10 39 23 51 29 24 13 17 1 177 279 131 227 150 259 188 328 12 20 25 42 29
47 4 6 21 35 38 65 16 30 69 123 117 205 48 83 98 169 111 192 l24 42 0 688 0
688 -96 165 c-53 91 -105 181 -115 200 -11 19 -28 49 -38 65 -10 17 -29 50
-43 75 -106 189 -362 627 -371 636 -7 7 -88 56 -182 110 -93 53 -226 130 -295
169 -69 40 -226 131 -350 202 -124 71 -245 143 -270 159 l-45 29 -681 2 c-672
1 -682 1 -715 -19z"/>
</g>
</svg>
