<svg xmlns="http://www.w3.org/2000/svg" baseProfile="tiny-ps" version="1.2" viewBox="0 0 768 768" preserveAspectRatio="xMidYMid meet" xml:space="preserve"><title>JealousGx Logo</title><path fill="#aaaad4" fill-opacity=".1" d="M359.8 192.7c13.8.2 36.6.2 50.5 0 13.8-.1 2.5-.2-25.3-.2s-39.1.1-25.2.2"/><path fill="#aaaad4" fill-opacity=".8" d="M358.8 193.7c14.5.2 37.9.2 52 0 14.1-.1 2.3-.2-26.3-.2s-40.2.1-25.7.2"/><path fill="#aaaad4" d="M322.7 199.8c-8.3 4.9-9.7 6-9.4 7.9.2 1.3.1 2.3-.2 2.3-.4 0-1.6.7-2.7 1.6-2.7 2.2-1.5 1.6 12-6.1l11.8-6.8 49.8-.3 49.9-.2 23.3 13.5c12.8 7.4 25 14.2 27.1 15 2 .8 3.7 1.9 3.7 2.4s.6.9 1.4.9 2.2.7 3 1.6c.9.8 1.6 1.3 1.6 1s2.1.5 4.6 1.9l4.5 2.4-.3-2.2c-.3-2.3.4-1.8-44.7-27.8L435.8 194l-51.7.1-51.6.1zM497.6 536c-1.6 1-3.3 1.7-3.7 1.5-.4-.3-.9.2-1.3 1-.3.8-1.5 1.5-2.6 1.5s-2 .4-2 .9-1.6 1.5-3.5 2.1-3.5 1.6-3.5 2.1-.5.9-1 .9c-.6 0-11.3 5.8-23.8 13l-22.8 13h-97.8l-10-5.6c-16.3-9.2-17.3-9.7-14.8-7.8 1.2.9 2.2 2.6 2.2 3.8 0 1.6 2.3 3.4 9.9 7.8l10 5.8h52.3c34.3 0 52.8-.4 53.4-1s13.4-8.2 28.5-16.9c36.4-21.1 35.9-20.8 35.9-22.6 0-2-1.8-1.8-5.4.5"/><path fill="#80aad4" d="M339.3 198.7c2.6.2 6.8.2 9.5 0 2.6-.2.4-.3-4.8-.3s-7.4.1-4.7.3m-45.4 18.1c-44.5 25.6-49.6 28.7-50.6 30.6-.5 1.2-5.7 10.2-11.5 20.1-5.7 9.9-16.6 28.6-24.1 41.5L194 332.6v104.7l25.2 43.7 25.3 43.7 11 6.4c6.1 3.5 21.3 12.3 33.9 19.6 12.5 7.3 23 13.3 23.1 13.3s.5-1.1.7-2.5c.3-1.3.1-2.2-.3-1.9-.5.2-1.7-.4-2.8-1.5s-2.2-1.7-2.5-1.3c-.3.3-.6 0-.6-.7s-.5-.9-1-.6c-.6.3-1.3-.1-1.6-.9-.3-.9-1-1.3-1.5-1s-.9 0-.9-.6-.4-.9-.9-.6-1.2-.1-1.5-1c-.3-.8-1-1.2-1.6-.9-.5.3-1 .1-1-.5s-.4-.8-1-.5c-.5.3-1 .1-1-.5s-.5-.8-1-.5c-.6.3-1.3-.1-1.6-.9-.3-.9-1-1.3-1.5-1s-.9 0-.9-.6-.5-.8-1-.5c-.6.3-1.3-.1-1.6-.9-.3-.9-1-1.3-1.5-1s-.9 0-.9-.6-.4-.8-1-.5c-.5.3-1 .1-1-.4 0-.6-.3-1-.7-1-2.1.3-3.3-.2-2.7-1.3q.75-1.05-.6-.3c-.8.5-1.8.1-2.7-1-.7-1.1-1.3-1.5-1.3-1s-.7 0-1.6-1.1c-.8-1-1.3-1.2-.9-.4.4 1 .2.9-.8-.2-.8-1-1.7-1.5-2-1.1-.4.3-.7.1-.7-.6s-.4-1-1-.6c-.5.3-1.8-.3-2.9-1.4s-2.2-1.7-2.5-1.3c-.3.3-.6 0-.6-.7s-.5-.9-1-.6c-.6.3-1.3-.1-1.6-.9-.3-.9-1-1.3-1.5-1s-.9 0-.9-.6-.4-.9-1-.5c-.5.3-1.8-.3-2.9-1.4s-2.2-1.7-2.5-1.3c-.3.3-.6 0-.6-.6 0-.7-.4-1.1-.9-1-.5.2-.8-.1-.7-.5 0-.5-.7-1.3-1.7-1.8-.9-.6-1.5-1.4-1.2-2 .4-.5.1-.9-.6-.9s-1-.3-.6-.6c.3-.3-.3-1.4-1.4-2.5s-1.7-2.4-1.4-2.9c.4-.6.1-1-.5-1s-.8-.5-.5-1c.3-.6.2-1-.4-1-1.4 0-4.2-5.5-3.3-6.5.4-.5.1-.4-.7 0-1.1.6-1.3.4-.8-.9.4-1 .3-1.5-.3-1.1-.9.5-1.2-.1-.9-2.1 0-.3-.7-1.1-1.7-1.8-1.1-.8-1.4-1.8-.9-2.6q.75-1.35-.3-.6c-1.1.6-1.6-.6-1.3-2.7 0-.4-.3-.7-.9-.7-1.2 0-4.1-5.5-3.3-6.4.4-.3.1-.6-.6-.6s-1-.4-.7-.9-.1-1.2-1-1.5c-.8-.3-1.2-1-.9-1.6.3-.5.1-1-.6-1s-1-.3-.7-.6c.4-.3-.2-1.4-1.3-2.5s-1.7-2.4-1.4-2.9c.4-.6.1-1-.5-1s-.9-.4-.6-.9-.1-1.2-1-1.5c-.8-.3-1.2-1-.9-1.6.3-.5.1-1-.5-1s-.8-.5-.5-1c.3-.6.1-1-.5-1s-.9-.4-.6-.9-.1-1.2-1-1.5c-.8-.3-1.2-1-.9-1.6.3-.5.1-1-.5-1s-.9-.4-.6-.9-.1-1.1-.9-1.5c-.8-.3-1.5-1.5-1.5-2.6s-.5-2-1.2-2c-.6 0-.8-.3-.5-.7.4-.3-.1-1.2-1.1-2-1.1-1-1.2-1.2-.2-.8.8.4.6-.1-.4-.9-1.1-.9-1.6-1.6-1.1-1.6s0-.7-1.1-1.6c-1-.8-1.3-1.2-.6-.9 1.1.6 1.1.3 0-1.4-.7-1.2-1.6-2.1-2.1-2.1-.4 0-.5-.5-.2-1 .3-.6.1-1-.4-1-.7 0-1.1-16.6-1.1-52s.4-52 1.1-52c.5 0 .7-.5.4-1-.3-.6.1-1.3.9-1.6.9-.3 1.3-1 1-1.5s0-.9.7-.9 1-.3.6-.6c-.3-.3.3-1.5 1.3-2.7 1.1-1.1 1.7-2.4 1.4-2.9-.3-.4 0-.8.6-.8s.8-.5.5-1c-.3-.6-.1-1 .6-1s.9-.3.6-.7c-.4-.3.1-1.2 1.1-2 1.1-.9 1.1-1.2.2-.7-.8.4-.5-.3.8-1.5 1.2-1.2 2-2.6 1.7-3.2-.4-.5.1-1.2.9-1.5.9-.3 1.3-1 1-1.5s0-.9.6-.9.8-.5.5-1c-.3-.6-.1-1 .5-1s.8-.5.5-1c-.3-.6.1-1.3.9-1.6.9-.3 1.3-1 1-1.5s0-.9.6-.9.8-.5.5-1c-.3-.6.1-1.3.9-1.6.9-.3 1.3-1 1-1.5s0-.9.6-.9.8-.5.5-1c-.3-.6-.1-1 .5-1s.8-.5.5-1c-.3-.6.1-1.3.9-1.6.9-.3 1.3-1 1-1.5s0-.9.6-.9.9-.4.5-1c-.3-.5.3-1.8 1.4-2.9s1.7-2.2 1.3-2.5c-.3-.3 0-.6.7-.6s.9-.5.6-1c-.3-.6.1-1.3.9-1.6.9-.3 1.4-1 1.1-1.4-.7-1.1 3.4-8 4.7-8 .5 0 .6-.5.3-1-.3-.6-.1-1 .4-1 .6 0 1-.3 1-.8-.4-2.1.2-3.2 1.4-2.6.6.4.9.4.5-.1-.9-1 1.9-6.5 3.3-6.5.6 0 .7-.5.4-1-.3-.6-.1-1 .5-1s.8-.4.5-1c-.3-.5.7-2.2 2.2-3.7 1.5-1.4 2.1-2.3 1.3-1.9s-.6.1.4-.8c1-.8 2.2-1.3 2.6-1.1.5.3 1.1-.2 1.4-1.1.4-1 1.2-1.4 2.3-1 1 .4 1.4.4 1 0-.9-.9 3-3.7 4.2-3 .5.3 1.2-.1 1.5-1 .3-.8 1-1.2 1.6-.9.5.3 1 .1 1-.6s.3-1 .6-.6c.3.3 1.4-.3 2.5-1.4s2.4-1.7 2.9-1.4c.6.4 1 .1 1-.6s.3-1 .6-.6c.3.3 1.4-.3 2.5-1.4s2.4-1.7 2.9-1.4c.6.4 1 .1 1-.5s.4-.9.9-.6 1.2-.1 1.5-1c.3-.8 1-1.2 1.6-.9.5.3 1 .1 1-.6s.3-1 .6-.7c.3.4 1.4-.2 2.5-1.3s2.4-1.7 2.9-1.4c.6.4 1 .1 1-.6s.3-.9.7-.6c.3.4 1.1 0 1.7-.8.6-.7 1.7-1.5 2.5-1.7s2.3-1.1 3.3-2.1 2.3-1.5 2.8-1.2c.6.4 1 .1 1-.5s.5-.8 1-.5c.6.3 1 .1 1-.5s.4-.9.9-.6 1.2-.1 1.5-1c.3-.8 1-1.3 1.5-1s1.2-.1 1.5-1c.4-.9 1.3-1.4 2.2-1 .8.3 1.3.2.9-.3-.3-.5-.1-1.1.4-1.3.4-.1.6-1.1.2-2-.5-1.4-3.5 0-19.2 9"/><path fill="#aaa" d="M406.3 198.7c5.4.2 13.9.2 19 0 5.1-.1.7-.3-9.8-.3-10.4 0-14.6.2-9.2.3m-32.6 55c10.5.2 28.1.2 39 0 10.9-.1 2.3-.2-19.2-.2-21.4 0-30.4.1-19.8.2m8.8 114.3c0 49.8.1 70.1.2 45.3.2-24.9.2-65.7 0-90.5-.1-24.9-.2-4.6-.2 45.2m9.3 203.7c7.8.2 20.6.2 28.5 0 7.8-.1 1.4-.3-14.3-.3s-22.1.2-14.2.3"/><path fill="#80aaaa" d="M346.3 571.7c5.9.2 15.5.2 21.5 0 5.9-.1 1-.3-10.8-.3s-16.7.2-10.7.3"/><path fill="#555" d="M570.5 385c0 27.2.1 38.4.2 24.7.2-13.6.2-35.8 0-49.5-.1-13.6-.2-2.4-.2 24.8"/><path fill="#2a2a2a" d="M359.8 199.7c13.9.2 36.4.2 50 0 13.6-.1 2.2-.2-25.3-.2s-38.6.1-24.7.2m0 371c13.9.2 36.4.2 50 0 13.6-.1 2.2-.2-25.3-.2s-38.6.1-24.7.2"/><path d="M292 224.5 249.5 249l-4.1 6.7c-2.3 3.8-13.6 23.3-25.3 43.4L199 335.7v98.6l23.1 40.1c12.7 22.1 24 41.5 25.1 43.3 1.5 2.5 10.9 8.4 44.5 27.7l42.6 24.6h100.6l41.8-24.1c23-13.2 42.4-24.6 43.1-25.3s12.3-20.3 25.7-43.7l24.5-42.4v-98.8l-7.5-13.1c-4.1-7.2-15.3-26.6-24.8-43.1l-17.3-30-42.5-24.7-42.4-24.6-50.5-.1-50.6-.1zm139.4 28.1c1.1.4 1.6 1.9 1.6 4.9v4.3l-7.2.7c-9.4.9-13.2 2.6-15.5 6.7-1.7 3.1-1.8 9.1-2.4 98.8-.4 63.5-1 97.3-1.7 100.9-4.3 20.9-14.4 36-28.8 43.1-17.1 8.4-44.8 6.9-60.7-3.2-6.7-4.3-9.9-8.8-10.5-14.8-.4-4.2-.1-5.2 2.1-7.4s3.5-2.6 8.3-2.6c5.4 0 5.9.2 9.8 4.3 2.2 2.4 5.6 6.2 7.4 8.5 4.7 5.9 9.8 8.3 17.9 8.3 16 0 24.7-10 28.4-33.1 1.1-6.8 1.4-27.3 1.4-103.5 0-91-.1-95.2-1.9-98.8-1-2.1-2.7-4.2-3.8-4.8s-6.5-1.6-11.9-2.2l-9.9-1v-4.2c0-2.3.3-4.5.7-4.8.8-.9 74.6-.9 76.7-.1m24.2 202.6c5.3 3.6 7.7 8.9 7.2 15.7-.5 7.2-3.5 11.6-9.6 14.3-10.3 4.6-22.3-3.6-22.2-15.3.1-6.7 4.9-13.9 11-16.2 3.7-1.4 10.5-.6 13.6 1.5"/><path fill="gray" d="M407.5 365c0 45.9.1 64.7.2 41.8.2-23 .2-60.6 0-83.5-.1-23-.2-4.2-.2 41.7"/><path fill="#558080" d="M198.5 385c0 27.2.1 38.4.2 24.7.2-13.6.2-35.8 0-49.5-.1-13.6-.2-2.4-.2 24.8"/><path fill="#80aad4" fill-opacity=".9" d="M193.5 385c0 28.9.1 40.7.2 26.2.2-14.4.2-38 0-52.5-.1-14.4-.2-2.6-.2 26.3"/><path fill="#80aad4" fill-opacity=".6" d="M192.5 385c0 28.3.1 39.9.2 25.8.2-14.2.2-37.4 0-51.5-.1-14.2-.2-2.6-.2 25.7"/><path fill="#2a002a" d="M374.3 252.7c10.3.2 27.1.2 37.5 0 10.3-.1 1.8-.2-18.8-.2s-29.1.1-18.7.2"/><path fill="#d4aad4" d="M497.1 234.4c.2.2 5.6 3.4 11.9 7.1 6.3 3.6 12.3 7.6 13.3 8.8l1.8 2.2-1-2.2c-.6-1.2-6.5-5.3-13-9.2-10.2-6-14.8-8.4-13-6.7m7.4 296.7c-10.2 5.8-14.1 8.9-5 3.9 8.5-4.6 14.5-8.1 14.5-8.6 0-.6 0-.6-9.5 4.7"/><path fill="#d4aaaa" d="M503 234.9c0 1.5 2.6 3.5 9.5 7.6 8.9 5.2 12.3 8.4 10.8 9.9-.3.3-.1.6.6.6s1 .4.7.9.1 1.2 1 1.5c.8.3 1.2 1 .9 1.6-.3.5-.1 1 .5 1s.8.4.5 1c-.3.5-.1 1 .5 1 1 0 3.5 4.8 3.2 6.2-.1.5.2.8.8.8s1 .6 1 1.4c0 .7.7 1.9 1.5 2.6s1.2 1.6.9 2.1-.1.9.5.9 1.3 1.1 1.7 2.5c.3 1.4 1 2.5 1.6 2.5.5 0 .6.4.3 1-.3.5-.1 1 .4 1 .6 0 1.1.7 1.1 1.5s.5 1.5 1.1 1.5c.5 0 .8.4.4.9-.3.5 0 1.5.7 2.3.7.7 2.7 3.9 4.3 7.1 1.7 3.1 3.3 5.7 3.8 5.7.4 0 .7.5.7 1.1 0 .7 4.3 8.6 9.5 17.7l9.5 16.5v99.5l-6 10.5c-3.3 5.7-6 10.9-6 11.5s-.4 1.2-.8 1.4c-1.1.4-16.8 27.6-17.7 30.5-.3 1.3-1.1 2.3-1.6 2.3-.6 0-.8.4-.5.9s-.1 1.4-.9 2.1-1.5 1.9-1.5 2.6c0 .8-.4 1.4-1 1.4-.5 0-1.2 1.1-1.6 2.5-.3 1.4-1 2.5-1.6 2.5-.5 0-.6.4-.3 1 .3.5.1 1-.5 1s-.9.4-.5 1c.3.5-.3 1.8-1.5 3-1.1 1.1-2 2.6-2 3.3s-.8 2.2-1.7 3.3c-1 1.1-1.9 2.6-2.1 3.4-.7 2.9-5.9 6.7-8.4 6.2-.5-.1-.8.2-.8.8 0 1.3-5.6 4.1-6.5 3.2-.5-.4-.5-.2-.2.4.4.6-.5 1.6-1.8 2.2-1.5.7-2.5 2-2.5 3.3 0 2 .2 2 2.3.7 1.2-.8 6-3.6 10.7-6.2l8.5-4.7 11.7-20.2c6.4-11.1 18-31.1 25.7-44.5l14.1-24.3V334.2l-9.2-16c-46.4-80-41.7-72.6-47.8-76.1-3-1.7-7.9-4.4-10.7-6.1-4.9-2.8-5.3-2.9-5.3-1.1"/><path fill="#d4d4d4" d="M355 258v4h8.3c9.7 0 14.1 1.8 17.2 7 2 3.5 2 4.8 2 101 0 106.9 0 106.6-6 119.8-4.5 9.8-10.4 14.6-19.9 16.2-11.3 1.8-19.8-2-26.6-12-4.7-6.9-8.1-9-14.4-9-3.7 0-4.8.5-6.6 2.7-4.4 5.6-.5 14.5 8.9 20.4 8.7 5.6 16.8 7.4 33.1 7.4 12.4-.1 15.4-.4 20.5-2.3 13.6-5 23.2-14.6 28.6-28.7 6.3-16.1 6.2-13.9 6.8-118 .6-90.4.7-95.1 2.5-98.1 2.8-4.6 5.3-5.7 14.1-6.4l8-.5.3-3.8.3-3.7H355zm85 198.2c-5.4 3.7-7.3 7-7.3 13-.1 10 5.4 15.8 15 15.8 4.1 0 5.8-.5 8.4-2.7 8.2-7 7.7-20.2-1-26-4.5-3-10.7-3.1-15.1-.1"/></svg>